<svg width="51" height="42" viewBox="0 0 51 42" fill="none" xmlns="http://www.w3.org/2000/svg">
<g clip-path="url(#clip0_1521_2018)">
<path d="M40.6206 27.1922C46.0619 27.1922 50.4729 22.7812 50.4729 17.34C50.4729 11.8988 46.0619 7.48779 40.6206 7.48779C35.1794 7.48779 30.7684 11.8988 30.7684 17.34C30.7684 22.7812 35.1794 27.1922 40.6206 27.1922Z" fill="#FFCC00"/>
</g>
<path d="M25.9194 2.67131C23.9588 3.8112 22.1022 4.45501 18.7026 9.41945C15.2884 8.49295 14.3418 8.49112 13.864 8.36163C14.5731 7.3993 15.3887 6.52014 16.2951 5.74082C17.9957 4.35681 19.9931 3.38434 22.1313 2.89929C23.439 2.60383 24.6573 2.49255 25.7498 2.74242C20.9276 1.35084 15.5638 1.95635 11.0151 4.43311C6.56137 6.85514 3.17271 11.1302 1.74101 16.1056C0.309305 21.081 1.02789 26.6345 3.52835 31.1083C6.10541 35.6004 10.7489 38.7885 15.748 40.1436C15.748 40.1436 14.008 37.1087 14.3892 30.036C14.8032 22.3759 15.8866 19.0602 17.3876 15.2156C19.9172 8.72641 21.4 7.37311 22.7989 5.66236C23.7108 4.53964 24.7591 3.53491 25.9194 2.67131ZM2.99397 16.3682C3.86587 12.963 5.70245 9.88197 8.28306 7.49531C10.22 8.26861 10.2656 8.44554 12.2444 9.06564C10.5682 11.6223 9.2817 14.4141 8.42714 17.3494C5.95403 16.7585 5.43972 16.784 2.99397 16.3682ZM14.5297 20.0833C13.687 23.1838 13.6469 25.2265 13.3898 29.0018C11.0079 28.3544 12.9648 28.8887 10.561 28.3197L8.66059 27.8036C8.48915 24.787 8.8758 21.8397 9.51414 18.8796M13.2402 30.4974C13.3095 33.0799 13.8092 36.7896 15.2264 39.239C13.6323 38.7301 12.228 37.1835 11.338 35.6296C10.4625 33.9882 9.70747 33.1364 8.77367 29.8225C8.73902 29.6402 8.72442 29.3976 8.68977 29.2225C11.0735 29.8609 10.9513 29.7934 13.2402 30.4974ZM15.5236 10.0359C17.8855 10.7654 15.6933 10.1472 18.077 10.7946C16.5194 13.7127 15.8446 16.1895 15.0932 18.9544C10.5592 17.7233 12.0219 18.1574 9.77312 17.6303C10.5501 14.7499 11.7159 11.9888 13.2384 9.42311L15.5236 10.045V10.0359ZM11.431 5.04776C13.5461 3.79379 15.8757 2.94346 18.3013 2.54C20.3718 2.21595 22.4831 2.25854 24.5388 2.66583C22.9393 2.48345 19.5142 2.78438 17.6758 3.76013C15.9176 4.76688 14.971 5.74263 13.6451 7.28011C13.5028 7.48438 13.0688 7.81815 12.9156 8.10449C10.82 7.61935 10.4571 7.7397 8.29765 7.48984C9.25664 6.57172 10.3065 5.7535 11.431 5.04776ZM2.95385 16.5214C5.27376 17.3987 5.70418 17.6814 8.06056 18.4054C7.25239 21.341 6.87456 24.3783 6.9389 27.4224C5.14973 27.0193 5.17345 27.1908 3.34233 26.9428C2.95614 25.8656 2.70615 24.7444 2.59821 23.6052C2.22321 21.2462 2.34371 18.8349 2.95203 16.5251L2.95385 16.5214ZM3.3022 27.0996C5.1625 27.8528 5.05489 27.9878 6.94985 28.586C6.99909 29.0128 7.28725 29.4979 7.33649 29.9283C8.83568 34.4368 9.86614 34.8216 11.0626 36.7968C7.44838 34.5395 4.70972 31.1197 3.29673 27.0996H3.3022Z" fill="url(#paint0_linear_1521_2018)"/>
<path d="M14.5297 20.0833C13.687 23.1838 13.6469 25.2265 13.3898 29.0018C11.0079 28.3544 12.9648 28.8887 10.561 28.3197L8.66059 27.8036C8.48915 24.787 8.8758 21.8397 9.51414 18.8796M25.9194 2.67131C23.9588 3.8112 22.1022 4.45501 18.7026 9.41945C15.2884 8.49295 14.3418 8.49112 13.864 8.36163C14.5731 7.3993 15.3887 6.52014 16.2951 5.74082C17.9957 4.35681 19.9931 3.38434 22.1313 2.89929C23.439 2.60383 24.6573 2.49255 25.7498 2.74242C20.9276 1.35084 15.5638 1.95635 11.0151 4.43311C6.56137 6.85514 3.17271 11.1302 1.74101 16.1056C0.309305 21.081 1.02789 26.6345 3.52835 31.1083C6.10541 35.6004 10.7489 38.7885 15.748 40.1436C15.748 40.1436 14.008 37.1087 14.3892 30.036C14.8032 22.3759 15.8866 19.0602 17.3876 15.2156C19.9172 8.72641 21.4 7.37311 22.7989 5.66236C23.7108 4.53964 24.7591 3.53491 25.9194 2.67131ZM2.99397 16.3682C3.86587 12.963 5.70245 9.88197 8.28306 7.49531C10.22 8.26861 10.2656 8.44554 12.2444 9.06564C10.5682 11.6223 9.2817 14.4141 8.42714 17.3494C5.95403 16.7585 5.43972 16.784 2.99397 16.3682ZM13.2402 30.4974C13.3095 33.0799 13.8092 36.7896 15.2264 39.239C13.6323 38.7301 12.228 37.1835 11.338 35.6296C10.4625 33.9882 9.70747 33.1364 8.77367 29.8225C8.73902 29.6402 8.72442 29.3976 8.68977 29.2225C11.0735 29.8609 10.9513 29.7934 13.2402 30.4974ZM15.5236 10.0359C17.8855 10.7654 15.6933 10.1472 18.077 10.7946C16.5194 13.7127 15.8446 16.1895 15.0932 18.9544C10.5592 17.7233 12.0219 18.1574 9.77312 17.6303C10.5501 14.7499 11.7159 11.9888 13.2384 9.42311L15.5236 10.045V10.0359ZM11.431 5.04776C13.5461 3.79379 15.8757 2.94346 18.3013 2.54C20.3718 2.21595 22.4831 2.25854 24.5388 2.66583C22.9393 2.48345 19.5142 2.78438 17.6758 3.76013C15.9176 4.76688 14.971 5.74263 13.6451 7.28011C13.5028 7.48438 13.0688 7.81815 12.9156 8.10449C10.82 7.61935 10.4571 7.7397 8.29765 7.48984C9.25664 6.57172 10.3065 5.7535 11.431 5.04776ZM2.95385 16.5214C5.27376 17.3987 5.70418 17.6814 8.06056 18.4054C7.25239 21.341 6.87456 24.3783 6.9389 27.4224C5.14973 27.0193 5.17345 27.1908 3.34233 26.9428C2.95614 25.8656 2.70615 24.7444 2.59821 23.6052C2.22321 21.2462 2.34371 18.8349 2.95203 16.5251L2.95385 16.5214ZM3.3022 27.0996C5.1625 27.8528 5.05489 27.9878 6.94985 28.586C6.99909 29.0128 7.28725 29.4979 7.33649 29.9283C8.83568 34.4368 9.86614 34.8216 11.0626 36.7968C7.44838 34.5395 4.70972 31.1197 3.29673 27.0996H3.3022Z" stroke="#666666" stroke-width="0.0827586" stroke-miterlimit="10"/>
<path d="M24.2958 25.9254L27.156 23.5718C27.173 23.5612 27.1922 23.5543 27.2121 23.5517C27.2321 23.5491 27.2524 23.5508 27.2716 23.5567C27.2908 23.5626 27.3086 23.5726 27.3236 23.586C27.3387 23.5993 27.3507 23.6157 27.3588 23.6341C27.8799 24.805 29.1635 28.34 29.7655 29.6912C29.9312 30.0625 29.7867 30.3913 29.2351 30.5637C28.6835 30.7361 26.8589 30.8514 26.5168 30.7546C26.2119 30.6685 25.9215 30.5478 25.818 30.2495C25.3977 29.0521 24.5478 26.5539 24.2958 25.9254Z" fill="#161616"/>
<path d="M24.1897 25.8009L27.0499 23.4473C27.0669 23.4367 27.0861 23.4298 27.106 23.4272C27.126 23.4246 27.1463 23.4263 27.1655 23.4322C27.1848 23.4381 27.2025 23.4481 27.2175 23.4615C27.2326 23.4748 27.2446 23.4912 27.2527 23.5096C27.7739 24.6805 29.0574 28.2155 29.6594 29.5667C29.8251 29.938 29.6806 30.2668 29.1224 30.4392C28.584 30.6049 26.7462 30.7269 26.4041 30.6301C26.0991 30.5439 25.8088 30.4233 25.7053 30.1249C25.2876 28.9276 24.4417 26.4215 24.1897 25.8009Z" fill="#272727"/>
<path d="M12.9441 26.5672L11.6764 29.841C11.5743 30.1765 12.0835 30.5955 12.4336 30.5928C12.9892 30.5928 14.2117 30.5928 14.8111 30.5994C14.9889 30.6006 15.1628 30.5466 15.3088 30.445C15.4548 30.3434 15.5658 30.1991 15.6265 30.0319L20.0023 16.1993L22.942 22.861C22.942 22.861 20.6109 22.8199 19.9864 22.861C19.3618 22.9021 17.4458 25.9015 17.4458 25.9015C17.4458 25.9015 17.28 26.2754 17.5293 26.4014C17.7402 26.5062 20.0222 26.477 20.7329 26.4664C20.9274 26.4626 21.1177 26.4092 21.2858 26.3112C21.5577 26.1508 22.6516 25.151 22.6516 25.151L25.7451 22.5653C25.7451 22.5653 26.424 21.958 26.2994 21.6663C26.1747 21.3746 22.9009 12.7054 22.9009 12.7054C22.9009 12.7054 22.7179 12.411 21.4423 12.4097C20.1375 12.4097 18.3448 12.4097 17.9284 12.7067C17.5121 13.0037 13.1974 25.5342 13.1974 25.5342L12.9441 26.5672Z" fill="#272727"/>
<path d="M24.0836 25.6749L26.9438 23.3226C26.9609 23.3119 26.98 23.3051 27 23.3025C27.0199 23.2998 27.0402 23.3016 27.0594 23.3075C27.0787 23.3134 27.0964 23.3233 27.1115 23.3367C27.1265 23.3501 27.1385 23.3665 27.1467 23.3849C27.6678 24.5557 28.9513 28.0908 29.5533 29.442C29.7191 29.8132 29.5745 30.1408 29.0163 30.3131C28.4581 30.4855 26.6401 30.6022 26.2967 30.5054C25.9931 30.4192 25.7027 30.2985 25.5992 29.9989C25.1855 28.8081 24.3356 26.2981 24.0836 25.6749Z" fill="#383838"/>
<path d="M12.8433 26.4426L11.5757 29.7165C11.4736 30.052 11.9814 30.471 12.3315 30.4683C12.8884 30.4683 14.1096 30.4683 14.7103 30.475C14.8882 30.4761 15.062 30.4221 15.208 30.3205C15.354 30.2189 15.465 30.0746 15.5258 29.9074L19.9015 16.0748L22.8412 22.7365C22.8412 22.7365 20.5101 22.6954 19.8856 22.7365C19.2611 22.7776 17.3318 25.777 17.3318 25.777C17.3318 25.777 17.166 26.1509 17.4153 26.2756C17.6261 26.3816 19.9081 26.3525 20.6189 26.3405C20.8134 26.3378 21.0038 26.2849 21.1718 26.1867C21.437 26.0263 22.5376 25.0265 22.5376 25.0265L25.6311 22.4408C25.6311 22.4408 26.31 21.8335 26.1853 21.5418C26.0607 21.2501 22.7868 12.5809 22.7868 12.5809C22.7868 12.5809 22.6039 12.2865 21.3283 12.2852C20.0235 12.2852 18.2308 12.2852 17.8144 12.5822C17.3981 12.8792 13.0886 25.4097 13.0886 25.4097L12.8433 26.4426Z" fill="#383838"/>
<path d="M23.9709 25.4297L26.8311 23.0774C26.848 23.0665 26.8671 23.0594 26.887 23.0565C26.907 23.0537 26.9273 23.0553 26.9466 23.0611C26.9659 23.0669 26.9837 23.0768 26.9987 23.0901C27.0138 23.1035 27.0258 23.1199 27.0339 23.1384C27.5537 24.3105 28.8386 27.8443 29.4406 29.1968C29.6063 29.568 29.4618 29.8956 28.9102 30.0679C28.3586 30.2403 26.534 30.357 26.1906 30.2602C25.887 30.174 25.5966 30.0533 25.4932 29.7537C25.0728 28.5576 24.2268 26.0516 23.9709 25.4297Z" fill="url(#paint1_linear_1521_2018)" stroke="#666666" stroke-width="0.0827586" stroke-miterlimit="10"/>
<path d="M11.4563 29.4711C11.3556 29.8052 11.8634 30.2255 12.2135 30.2229C12.7691 30.2229 13.9916 30.2229 14.5923 30.2229C14.77 30.2246 14.9438 30.171 15.0896 30.0696C15.2355 29.9681 15.3462 29.8238 15.4064 29.6567L19.7822 15.8228L22.7219 22.4858C22.7219 22.4858 20.3908 22.4447 19.7662 22.4858C19.1417 22.5269 17.2257 25.5249 17.2257 25.5249C17.2257 25.5249 17.0586 25.9002 17.3092 26.0248C17.52 26.1309 19.8021 26.1017 20.5128 26.0898C20.7069 26.0873 20.897 26.0343 21.0644 25.936C21.3375 25.7756 22.4301 24.7758 22.4301 24.7758L25.525 22.1901C25.525 22.1901 26.2039 21.5815 26.0792 21.2911C25.9546 21.0007 22.6808 12.3301 22.6808 12.3301C22.6808 12.3301 22.4964 12.0344 21.2222 12.0344C19.9161 12.0344 18.1247 12.0344 17.7083 12.3314C17.292 12.6285 13.0674 25.1788 13.0674 25.1788L11.4563 29.4711Z" fill="url(#paint2_linear_1521_2018)" stroke="#666666" stroke-width="0.0827586" stroke-miterlimit="10"/>
<path d="M28.2229 37.6997C16.1073 42.2812 3.67243 33.8697 3.73444 21.0044C3.67973 8.141 16.607 -0.516718 28.7208 4.06108C31.2979 5.00035 33.1089 6.14756 34.9565 8.06075C35.0115 8.11842 35.0809 8.16028 35.1575 8.18209C35.2342 8.2039 35.3153 8.20483 35.3924 8.18476H35.4033C35.4782 8.16507 35.5468 8.12629 35.6023 8.07224C35.6578 8.0182 35.6983 7.95074 35.72 7.87637C35.7416 7.802 35.7437 7.72325 35.7259 7.64786C35.7081 7.57246 35.6711 7.50296 35.6185 7.44611C30.3404 1.80684 21.9234 -0.748327 13.915 2.29928C4.82691 5.64782 -0.600786 15.553 1.42183 25.0332C3.92594 37.5337 17.6539 44.508 29.206 39.2098C33.4956 37.3148 36.9463 33.8277 38.9725 29.6566C39.0013 29.598 39.0156 29.5333 39.0141 29.4679C39.0126 29.4026 38.9953 29.3386 38.9638 29.2813C38.9324 29.2241 38.8875 29.1752 38.8332 29.139C38.7788 29.1027 38.7165 29.0801 38.6515 29.073H38.6406C38.5592 29.0647 38.4773 29.0814 38.4056 29.1208C38.3339 29.1603 38.2759 29.2205 38.2394 29.2937C36.1565 33.3809 32.6238 36.0929 28.2229 37.6997Z" fill="url(#paint3_linear_1521_2018)" stroke="#666666" stroke-width="0.0827586" stroke-miterlimit="10"/>
<defs>
<linearGradient id="paint0_linear_1521_2018" x1="6.32019" y1="8.98023" x2="32.0345" y2="35.3842" gradientUnits="userSpaceOnUse">
<stop stop-color="#9C9C9C"/>
<stop offset="0.365" stop-color="#838383"/>
<stop offset="1" stop-color="#696969"/>
</linearGradient>
<linearGradient id="paint1_linear_1521_2018" x1="24.3462" y1="25.7585" x2="29.4658" y2="27.8602" gradientUnits="userSpaceOnUse">
<stop stop-color="#828282"/>
<stop offset="0.754" stop-color="#4D4D4D"/>
</linearGradient>
<linearGradient id="paint2_linear_1521_2018" x1="14.2475" y1="20.1216" x2="24.264" y2="23.7136" gradientUnits="userSpaceOnUse">
<stop stop-color="#AEAEAE"/>
<stop offset="0.444" stop-color="#838383"/>
<stop offset="1" stop-color="#4D4D4D"/>
</linearGradient>
<linearGradient id="paint3_linear_1521_2018" x1="1.00053" y1="8.88788" x2="39.0137" y2="33.101" gradientUnits="userSpaceOnUse">
<stop offset="0.0622445" stop-color="#A8A8A8"/>
<stop offset="0.282128" stop-color="#777777"/>
<stop offset="0.529" stop-color="#595959"/>
<stop offset="1" stop-color="#4D4D4D"/>
</linearGradient>
<clipPath id="clip0_1521_2018">
<rect width="19.7044" height="19.7044" fill="white" transform="translate(30.7684 7.48779)"/>
</clipPath>
</defs>
</svg>
